<?xml version="1.0" encoding="UTF-8"?>
<svg width="851px" height="424px" viewBox="0 0 851 424" version="1.1" xmlns="http://www.w3.org/2000/svg" xmlns:xlink="http://www.w3.org/1999/xlink">
    <!-- Generator: Sketch 45.1 (43504) - http://www.bohemiancoding.com/sketch -->
    <title>Melon</title>
    <desc>Created with Sketch.</desc>
    <defs>
        <path d="M340.974335,150.76687 C352.29136,150.76687 361.465621,141.431666 361.465621,129.916108 C361.465621,118.400551 344.75762,85.8978348 340.974335,85.8978348 C337.19105,85.8978348 320.483049,118.400551 320.483049,129.916108 C320.483049,141.431666 329.65731,150.76687 340.974335,150.76687 Z" id="path-1"></path>
        <path d="M509.974335,150.76687 C521.29136,150.76687 530.465621,141.431666 530.465621,129.916108 C530.465621,118.400551 513.75762,85.8978348 509.974335,85.8978348 C506.19105,85.8978348 489.483049,118.400551 489.483049,129.916108 C489.483049,141.431666 498.65731,150.76687 509.974335,150.76687 Z" id="path-3"></path>
        <path d="M543.748526,85.7381185 C555.06555,85.7381185 564.239812,76.4029147 564.239812,64.8873573 C564.239812,53.3717999 547.53181,20.8690837 543.748526,20.8690837 C539.965241,20.8690837 523.25724,53.3717999 523.25724,64.8873573 C523.25724,76.4029147 532.431501,85.7381185 543.748526,85.7381185 Z" id="path-5"></path>
        <path d="M304.748526,85.7381185 C316.06555,85.7381185 325.239812,76.4029147 325.239812,64.8873573 C325.239812,53.3717999 308.53181,20.8690837 304.748526,20.8690837 C300.965241,20.8690837 284.25724,53.3717999 284.25724,64.8873573 C284.25724,76.4029147 293.431501,85.7381185 304.748526,85.7381185 Z" id="path-7"></path>
        <path d="M425.502388,182.866628 C436.819413,182.866628 445.993674,173.531424 445.993674,162.015867 C445.993674,150.500309 429.285673,117.997593 425.502388,117.997593 C421.719104,117.997593 405.011102,150.500309 405.011102,162.015867 C405.011102,173.531424 414.185363,182.866628 425.502388,182.866628 Z" id="path-9"></path>
    </defs>
    <g id="Page-1" stroke="none" stroke-width="1" fill="none" fill-rule="evenodd">
        <g id="Melon">
            <path d="M0.000190935869,8.46204193e-08 C0.821208308,234.283904 190.997929,423.953816 425.474431,423.953816 C659.950932,423.953816 850.127653,234.283904 850.94867,8.46204841e-08 L738.284385,0 C737.286745,172.092744 597.471084,311.292235 425.14364,311.292235 C252.816196,311.292235 113.000535,172.092744 112.002895,1.98729921e-14 L-7.46069873e-14,0 Z" id="Combined-Shape" fill="#60B557"></path>
            <path d="M157,9.70084985e-11 C157.063627,148.445429 277.421908,268.764463 425.882206,268.764463 C574.342504,268.764463 694.700785,148.445429 694.764412,9.70275943e-11 L156.999998,0 Z" id="Combined-Shape" fill="#EC5953"></path>
            <mask id="mask-2" fill="white">
                <use xlink:href="#path-1"></use>
            </mask>
            <use id="Oval-4-Copy-2" fill="#F8F8F8" transform="translate(340.974335, 118.332352) scale(-1, 1) rotate(-30.000000) translate(-340.974335, -118.332352) " xlink:href="#path-1"></use>
            <mask id="mask-4" fill="white">
                <use xlink:href="#path-3"></use>
            </mask>
            <use id="Oval-4-Copy-2" fill="#F8F8F8" transform="translate(509.974335, 118.332352) scale(-1, 1) rotate(30.000000) translate(-509.974335, -118.332352) " xlink:href="#path-3"></use>
            <mask id="mask-6" fill="white">
                <use xlink:href="#path-5"></use>
            </mask>
            <use id="Oval-4-Copy-2" fill="#F8F8F8" transform="translate(543.748526, 53.303601) scale(-1, 1) rotate(79.000000) translate(-543.748526, -53.303601) " xlink:href="#path-5"></use>
            <mask id="mask-8" fill="white">
                <use xlink:href="#path-7"></use>
            </mask>
            <use id="Oval-4-Copy-2" fill="#F8F8F8" transform="translate(304.748526, 53.303601) scale(-1, 1) rotate(-79.000000) translate(-304.748526, -53.303601) " xlink:href="#path-7"></use>
            <mask id="mask-10" fill="white">
                <use xlink:href="#path-9"></use>
            </mask>
            <use id="Oval-4-Copy-2" fill="#F8F8F8" transform="translate(425.502388, 150.432111) scale(-1, 1) translate(-425.502388, -150.432111) " xlink:href="#path-9"></use>
        </g>
    </g>
</svg>